<svg width="6" height="10" viewBox="0 0 6 10" fill="none" xmlns="http://www.w3.org/2000/svg">
<path d="M0.463356 0.150163L0.153765 0.457617C0.0570798 0.554379 0.00381522 0.683114 0.00381523 0.820701C0.00381524 0.958212 0.0570799 1.0871 0.153765 1.18386L3.66114 4.69108L0.149873 8.20235C0.0531883 8.29896 -4.18922e-08 8.42785 -3.58814e-08 8.56536C-2.98706e-08 8.70287 0.0531883 8.83184 0.149874 8.92852L0.457557 9.23605C0.657642 9.43629 0.983564 9.43629 1.18365 9.23605L5.37927 5.05547C5.47588 4.95886 5.54395 4.83012 5.54395 4.69139L5.54395 4.68979C5.54395 4.5522 5.4758 4.42346 5.37927 4.32685L1.19502 0.150163C1.09841 0.0534009 0.965783 0.000288921 0.828272 0.000136339C0.690684 0.000136345 0.559888 0.053401 0.463356 0.150163Z" fill="#1D3795"/>
</svg>
